<?xml version="1.0" encoding="UTF-8" standalone="no"?>
<svg
   xml:space="preserve"
   width="128"
   height="128"
   version="1.1"
   id="svg37"
   xmlns:xlink="http://www.w3.org/1999/xlink"
   xmlns="http://www.w3.org/2000/svg"
   xmlns:svg="http://www.w3.org/2000/svg"><defs
     id="defs2"><linearGradient
       id="a"><stop
         offset="0"
         style="stop-color:#8ff0a4;stop-opacity:.48627451"
         id="stop1" /><stop
         offset="1"
         style="stop-color:#8ff0a4;stop-opacity:0"
         id="stop2" /></linearGradient><linearGradient
       xlink:href="#a"
       id="h"
       x1="62"
       x2="62"
       y1="164"
       y2="128"
       gradientTransform="translate(1,-82)"
       gradientUnits="userSpaceOnUse" /><radialGradient
       xlink:href="#linearGradient5"
       id="radialGradient227-9"
       gradientUnits="userSpaceOnUse"
       gradientTransform="matrix(0.48138448,0.00163653,-0.0015106,0.44435301,-0.89303781,-28.75754)"
       cx="77.852409"
       cy="217.99319"
       fx="77.852409"
       fy="217.99319"
       r="24" /><linearGradient
       id="linearGradient5"><stop
         style="stop-color:#ddffd7;stop-opacity:1;"
         offset="0"
         id="stop3-3" /><stop
         style="stop-color:#8ff0a4;stop-opacity:1;"
         offset="0.27586201"
         id="stop4-2" /><stop
         style="stop-color:#26a269;stop-opacity:1;"
         offset="1"
         id="stop5-0" /></linearGradient><radialGradient
       xlink:href="#linearGradient14"
       id="radialGradient227-7"
       gradientUnits="userSpaceOnUse"
       gradientTransform="matrix(1.5338266,0.00521441,-0.00481329,1.415832,-40.042613,-231.53275)"
       cx="77.852409"
       cy="217.99319"
       fx="77.852409"
       fy="217.99319"
       r="24" /><linearGradient
       id="linearGradient14"><stop
         style="stop-color:#d7f8ff;stop-opacity:1;"
         offset="0"
         id="stop12-6" /><stop
         style="stop-color:#99c1f1;stop-opacity:1;"
         offset="0.27586201"
         id="stop13-1" /><stop
         style="stop-color:#1a5fb4;stop-opacity:1"
         offset="1"
         id="stop14-5" /></linearGradient><radialGradient
       xlink:href="#linearGradient8"
       id="radialGradient227-2"
       gradientUnits="userSpaceOnUse"
       gradientTransform="matrix(0.98164782,0.00333723,-0.00308048,0.90613146,-26.236545,-122.9153)"
       cx="77.852409"
       cy="217.99319"
       fx="77.852409"
       fy="217.99319"
       r="24" /><linearGradient
       id="linearGradient8"><stop
         style="stop-color:#ffeed7;stop-opacity:1;"
         offset="0"
         id="stop6-5" /><stop
         style="stop-color:#f9f06b;stop-opacity:1;"
         offset="0.27586201"
         id="stop7-4" /><stop
         style="stop-color:#e5a50a;stop-opacity:1;"
         offset="1"
         id="stop8-7" /></linearGradient><radialGradient
       xlink:href="#linearGradient11"
       id="radialGradient227-6"
       gradientUnits="userSpaceOnUse"
       gradientTransform="matrix(0.80230823,0.00272752,-0.00251769,0.74058841,0.86370376,-92.897063)"
       cx="77.852409"
       cy="217.99319"
       fx="77.852409"
       fy="217.99319"
       r="24" /><linearGradient
       id="linearGradient11"><stop
         style="stop-color:#ffd7e2;stop-opacity:1;"
         offset="0"
         id="stop9-6" /><stop
         style="stop-color:#f66151;stop-opacity:1;"
         offset="0.27586201"
         id="stop10-5" /><stop
         style="stop-color:#a51d2d;stop-opacity:1;"
         offset="1"
         id="stop11-6" /></linearGradient></defs><linearGradient
     id="b"
     gradientUnits="userSpaceOnUse"><stop
       offset="0"
       stop-color="#b5835a"
       id="stop3" /><stop
       offset="1"
       stop-color="#63452c"
       id="stop4" /></linearGradient><linearGradient
     xlink:href="#b"
     id="c"
     x1="20"
     x2="32"
     y1="110.5"
     y2="110.5" /><linearGradient
     xlink:href="#b"
     id="e"
     x1="96"
     x2="108"
     y1="110.5"
     y2="110.5" /><linearGradient
     id="f"
     x1="-116"
     x2="-12"
     y1="-246"
     y2="-246"
     gradientTransform="rotate(180,0,-86)"
     gradientUnits="userSpaceOnUse"><stop
       offset="0"
       stop-color="#865e3c"
       id="stop5" /><stop
       offset=".058"
       stop-color="#b5835a"
       id="stop6" /><stop
       offset=".115"
       stop-color="#865e3c"
       id="stop7" /><stop
       offset=".885"
       stop-color="#865e3c"
       id="stop8" /><stop
       offset=".942"
       stop-color="#b5835a"
       id="stop9" /><stop
       offset="1"
       stop-color="#865e3c"
       id="stop10" /></linearGradient><linearGradient
     id="g"
     x1="84"
     x2="46"
     y1="230"
     y2="178"
     gradientTransform="matrix(0.75,0,0,0.70833,15,-73.5)"
     gradientUnits="userSpaceOnUse"><stop
       offset="0"
       stop-color="#1a5fb4"
       id="stop11" /><stop
       offset="1"
       stop-color="#8ff0a4"
       id="stop12" /></linearGradient><radialGradient
     id="i"
     cx="77.851997"
     cy="217.993"
     r="24"
     gradientTransform="matrix(1.53472,0.00522,-0.00482,1.41666,-40.099,-231.728)"
     gradientUnits="userSpaceOnUse"><stop
       offset="0"
       stop-color="#f0d7ff"
       id="stop13" /><stop
       offset=".276"
       stop-color="#dc8add"
       id="stop14" /><stop
       offset="1"
       stop-color="#1a5fb4"
       id="stop15" /></radialGradient><radialGradient
     id="j"
     cx="36"
     cy="208.72701"
     r="24"
     gradientTransform="matrix(1.45833,0,0,1.25,-11.835,-187.575)"
     gradientUnits="userSpaceOnUse"><stop
       offset="0"
       stop-color="#f8e45c"
       id="stop16" /><stop
       offset="1"
       stop-color="#f8e45c"
       stop-opacity="0"
       id="stop17" /></radialGradient><path
     fill="url(#c)"
     d="m 26,98 c 3.313,0 6,2.688 6,6 v 13 a 6.001,6.001 0 0 1 -12,0 v -13 c 0,-3.312 2.688,-6 6,-6 m 0,0"
     id="path17"
     style="fill:url(#c)" /><path
     fill="url(#e)"
     d="m 102,98 c 3.313,0 6,2.688 6,6 v 13 a 6.001,6.001 0 0 1 -12,0 v -13 c 0,-3.312 2.688,-6 6,-6 m 0,0"
     id="path18"
     style="fill:url(#e)" /><path
     fill="url(#f)"
     d="M 104,116 H 24 c -6.629,0 -12,-5.371 -12,-12 V 44 c 0,-6.629 5.371,-12 12,-12 h 80 c 6.629,0 12,5.371 12,12 v 60 c 0,6.629 -5.371,12 -12,12 m 0,0"
     id="path19"
     style="fill:url(#f)" /><path
     fill="#b5835a"
     d="M 104,104 H 24 C 17.371,104 12,98.629 12,92 V 44 c 0,-6.629 5.371,-12 12,-12 h 80 c 6.629,0 12,5.371 12,12 v 48 c 0,6.629 -5.371,12 -12,12 m 0,0"
     id="path20" /><path
     fill="#63452c"
     d="m 20,40 h 88 V 72 H 20 Z m 0,0"
     id="path21" /><path
     fill="#865e3c"
     d="m 20,32 h -8 v 32 h 8 z m 96,0 h -8 v 32 h 8 z M 20,72 h 88 v 8 H 20 Z m 0,0"
     id="path22" /><path
     fill="#986a44"
     d="M 104,96 H 24 c -2.21,0 -4,-1.79 -4,-4 v -8 c 0,-2.21 1.79,-4 4,-4 h 80 c 2.21,0 4,1.79 4,4 v 8 c 0,2.21 -1.79,4 -4,4 m 0,0"
     id="path23" /><path
     fill="#986a44"
     d="m 20,88 h 88 V 80 H 20 Z m 0,0"
     id="path24" /><path
     fill="url(#g)"
     d="m 51,54 h 24 c 3.313,0 6,2.688 6,6 v 22 a 6,6 0 0 1 -6,6 H 51 c -3.312,0 -6,-2.687 -6,-6 V 60 c 0,-3.312 2.688,-6 6,-6 m 0,0"
     id="path25"
     style="fill:url(#g)" /><path
     d="m 51,54 c -3.312,0 -6,2.688 -6,6 v 8 c 0,3.313 2.688,6 6,6 h 24 a 6,6 0 0 0 6,-6 v -8 c 0,-3.312 -2.687,-6 -6,-6 z"
     style="mix-blend-mode:overlay;fill:url(#h);stroke-width:1.13386;stroke-linejoin:round"
     id="path26" /><path
     fill="url(#i)"
     d="m 84,69 c 9.387,0 17,7.613 17,17 0,9.387 -7.613,17 -17,17 -9.387,0 -17,-7.613 -17,-17 0,-9.387 7.613,-17 17,-17 m 0,0"
     id="path27"
     style="display:none;fill:url(#i)" /><g
     id="g37"
     transform="matrix(1.0005939,0,0,1.0005939,-0.0335382,-0.06117376)"
     style="display:inline"><path
       d="m 38.032019,65.569625 c 2.944485,0 5.332259,2.387778 5.332259,5.332263 0,2.944492 -2.387774,5.332258 -5.332259,5.332258 -2.94448,0 -5.332259,-2.387766 -5.332259,-5.332258 0,-2.944485 2.387779,-5.332263 5.332259,-5.332263 z"
       fill="url(#g)"
       id="path225-3"
       style="display:inline;fill:url(#radialGradient227-9);stroke-width:0.570301;enable-background:new" /><path
       d="m 65.738847,64.314975 c 4.907466,0 8.887097,3.979636 8.887097,8.887103 0,4.907478 -3.979631,8.887102 -8.887097,8.887102 -4.907475,0 -8.887095,-3.979624 -8.887095,-8.887102 0,-4.907467 3.97962,-8.887103 8.887095,-8.887103 z"
       fill="url(#g)"
       id="path225-9"
       style="display:inline;fill:url(#radialGradient227-6);stroke-width:0.950474;enable-background:new" /><path
       d="m 53.140081,69.438127 c 6.004426,0 10.873622,4.869193 10.873622,10.873632 0,6.004442 -4.869196,10.873635 -10.873622,10.873635 -6.004429,0 -10.873625,-4.869193 -10.873625,-10.873635 0,-6.004439 4.869196,-10.873632 10.873625,-10.873632 z"
       fill="url(#g)"
       id="path225-2"
       style="display:inline;fill:url(#radialGradient227-2);stroke-width:1.16296;enable-background:new" /><path
       d="m 83.983525,69.019912 c 9.38193,0 16.990045,7.608103 16.990045,16.990037 C 100.97357,95.3919 93.365455,103 83.983525,103 74.601606,103 66.993494,95.3919 66.993494,86.009949 c 0,-9.381934 7.608112,-16.990037 16.990031,-16.990037 z"
       fill="url(#g)"
       id="path225-31"
       style="display:inline;fill:url(#radialGradient227-7);stroke-width:1.81709;enable-background:new" /></g><path
     fill="#e01b24"
     d="M 63.195,103.04 A 6.03,6.03 0 0 0 63.18,97.02 L 49.195,72.984 c -2.324,-3.98 -8.07,-3.98 -10.386,0 L 24.816,97.02 c -2.332,4.003 0.563,9.035 5.196,9.035 h 27.976 a 6,6 0 0 0 5.207,-3.016 m 0,0"
     id="path28" /><path
     fill="url(#j)"
     d="M 63.195,103.04 A 6.03,6.03 0 0 0 63.18,97.02 L 49.195,72.984 c -2.324,-3.98 -8.07,-3.98 -10.386,0 L 24.816,97.02 c -2.332,4.003 0.563,9.035 5.196,9.035 h 27.976 a 6,6 0 0 0 5.207,-3.016 m 0,0"
     id="path29"
     style="fill:url(#j)" /><path
     fill="#865e3c"
     d="m 24,108 h 80 v -8 H 24 Z m 0,0"
     id="path30" /><path
     fill="#b5835a"
     d="m 24,104 h 80 V 96 H 24 Z m 0,0"
     id="path31" /><path
     fill="#deddda"
     d="m 88,42 c 6.629,0 12,5.371 12,12 0,6.629 -5.371,12 -12,12 -6.629,0 -12,-5.371 -12,-12 0,-6.629 5.371,-12 12,-12 m 0,0"
     id="path32" /><path
     fill="#ed333b"
     d="m 64,42 c 6.629,0 12,5.371 12,12 0,6.629 -5.371,12 -12,12 -6.629,0 -12,-5.371 -12,-12 0,-6.629 5.371,-12 12,-12 m -48,0 c 6.629,0 12,5.371 12,12 0,6.629 -5.371,12 -12,12 C 9.371,66 4,60.629 4,54 4,47.371 9.371,42 16,42 m 0,0"
     id="path33" /><path
     fill="#deddda"
     d="m 40,42 c 6.629,0 12,5.371 12,12 0,6.629 -5.371,12 -12,12 -6.629,0 -12,-5.371 -12,-12 0,-6.629 5.371,-12 12,-12 m 0,0"
     id="path34" /><path
     fill="#ed333b"
     d="m 112,42 c 6.629,0 12,5.371 12,12 0,6.629 -5.371,12 -12,12 -6.629,0 -12,-5.371 -12,-12 0,-6.629 5.371,-12 12,-12 m 0,0"
     id="path35" /><path
     fill="#f66151"
     d="M 10,12 C 6.676,12 4,14.676 4,18 V 54 H 124 V 18 c 0,-3.324 -2.676,-6 -6,-6 z m 0,0"
     id="path36" /><path
     fill="#f6f5f4"
     d="M 28,12 V 54 H 52 V 12 Z m 48,0 v 42 h 24 V 12 Z m 0,0"
     id="path37" /></svg>
