<?xml version="1.0" encoding="UTF-8" standalone="no"?>
<svg
   width="90"
   height="22"
   viewBox="0 0 89.999998 22"
   fill="none"
   version="1.1"
   id="svg18"
   sodipodi:docname="fedora_whitelogo.svg"
   inkscape:version="1.4.4 (dcaf3e7d9e, 2026-05-05)"
   xml:space="preserve"
   xmlns:inkscape="http://www.inkscape.org/namespaces/inkscape"
   xmlns:sodipodi="http://sodipodi.sourceforge.net/DTD/sodipodi-0.dtd"
   xmlns="http://www.w3.org/2000/svg"
   xmlns:svg="http://www.w3.org/2000/svg"><sodipodi:namedview
     id="namedview1"
     pagecolor="#ffffff"
     bordercolor="#000000"
     borderopacity="0.25"
     inkscape:showpageshadow="2"
     inkscape:pageopacity="0.0"
     inkscape:pagecheckerboard="0"
     inkscape:deskcolor="#d1d1d1"
     inkscape:zoom="8"
     inkscape:cx="54.5"
     inkscape:cy="6.0625"
     inkscape:window-width="1920"
     inkscape:window-height="1006"
     inkscape:window-x="0"
     inkscape:window-y="0"
     inkscape:window-maximized="1"
     inkscape:current-layer="g1" /><g
     id="g1"
     transform="matrix(1.1422913,0,0,1.1422913,2.2867623,1.1188993)"><path
       d="M 0,3.4600983 C 0,1.5491572 1.5491572,0 3.4600983,0 h 5.1901474 c 4.7773953,0 8.6502463,3.8728507 8.6502463,8.6502457 0,4.7773953 -3.872851,8.6502463 -8.6502463,8.6502463 C 3.8728507,17.300492 0,13.427641 0,8.6502457 Z"
       fill="url(#paint0_linear_1016_57)"
       id="path1"
       style="fill:url(#paint0_linear_1016_57);stroke-width:0.0424031" /><path
       fill-rule="evenodd"
       clip-rule="evenodd"
       d="m 4.4289259,0 h 2.214463 v 4.4289259 h 4.6429351 c 1.945627,0 3.522897,1.5772706 3.522897,3.5228975 0,3.7872386 -3.070159,6.8573976 -6.8573976,6.8573976 -1.9456269,0 -3.5228975,-1.57727 -3.5228975,-3.522897 V 6.6433889 H 0 v -2.214463 h 4.4289259 z m 2.214463,6.6433889 v 4.6429351 c 0,0.722634 0.5857998,1.308434 1.3084345,1.308434 2.5642036,0 4.6429346,-2.078731 4.6429346,-4.6429346 0,-0.7226347 -0.5858,-1.3084345 -1.308434,-1.3084345 z"
       fill="#ffffff"
       fill-opacity="0.5"
       id="path2"
       style="stroke-width:0.0424031" /><path
       d="m 6.6433889,2.145261 c 0,-0.6114961 -0.4957355,-1.1072315 -1.1072313,-1.1072315 -0.6114964,0 -1.1072317,0.4957354 -1.1072317,1.1072315 V 4.4289259 H 2.145261 c -0.6114961,0 -1.1072315,0.4957353 -1.1072315,1.1072317 0,0.6114958 0.4957354,1.1072313 1.1072315,1.1072313 h 2.2836649 v 2.283665 c 0,0.6114959 0.4957353,1.1072311 1.1072317,1.1072311 0.6114958,0 1.1072313,-0.4957352 1.1072313,-1.1072311 v -2.283665 h 2.283665 c 0.6114959,0 1.1072311,-0.4957355 1.1072311,-1.1072313 0,-0.6114964 -0.4957352,-1.1072317 -1.1072311,-1.1072317 h -2.283665 z"
       fill="#ffffff"
       fill-opacity="0.7"
       id="path3"
       style="stroke-width:0.0424031" /><path
       d="m 9.0242419,5.3525517 c 0.1413297,0.081584 0.1413297,0.2856275 0,0.3672113 L 8.4146539,6.0717091 C 8.2732818,6.1533354 8.0966303,6.0513161 8.0966303,5.8881036 V 5.184211 c 0,-0.1632097 0.1766515,-0.2652317 0.3180236,-0.1836055 z"
       fill="#ffffff"
       id="path4"
       style="stroke-width:0.0424031" /><path
       d="m 5.719763,9.0242419 c -0.081584,0.1413297 -0.2856275,0.1413297 -0.3672113,0 L 5.0006055,8.4146539 C 4.9189792,8.2733242 5.0209985,8.0966303 5.184211,8.0966303 h 0.7038926 c 0.1632097,0 0.2652318,0.1766939 0.1836055,0.3180236 z"
       fill="#ffffff"
       id="path5"
       style="stroke-width:0.0424031" /><path
       d="m 5.3525517,2.0480729 c 0.081584,-0.1413298 0.2856275,-0.1413298 0.3672113,0 L 6.0717091,2.6576608 C 6.1533354,2.7989906 6.0513161,2.9756845 5.8881036,2.9756845 H 5.184211 c -0.1632097,0 -0.2652317,-0.1766939 -0.1836055,-0.3180237 z"
       fill="#ffffff"
       id="path6"
       style="stroke-width:0.0424031" /><path
       d="m 2.0480729,5.719763 c -0.1413722,-0.081584 -0.1413722,-0.2856275 0,-0.3672113 L 2.6576608,5.0006055 c 0.1413298,-0.081626 0.3180237,0.020393 0.3180237,0.1836055 v 0.7038926 c 0,0.1632097 -0.1766939,0.2652318 -0.3180237,0.1836055 z"
       fill="#ffffff"
       id="path7"
       style="stroke-width:0.0424031" /><path
       d="M 18.844722,12.312735 V 7.7447968 h 1.221661 v 4.7804012 q 0,0.35853 0.146063,0.610828 0.146069,0.252299 0.385092,0.37181 0.239022,0.11951 0.504599,0.11951 0.265577,0 0.504592,-0.126151 0.239023,-0.126148 0.391731,-0.371808 0.152708,-0.245659 0.152708,-0.604189 V 9.8959777 q 0,-0.7834547 0.292131,-1.2946925 0.292138,-0.5112369 0.796739,-0.7635362 0.5046,-0.2522991 1.141984,-0.2522991 0.637385,0 1.141984,0.2522991 0.504594,0.2522993 0.796732,0.7635362 0.292137,0.5112378 0.292137,1.2946925 v 2.6292203 q 0,0.35853 0.146071,0.604189 0.14606,0.24566 0.385084,0.371808 0.239023,0.126151 0.517876,0.126151 0.278855,0 0.5046,-0.126151 0.225739,-0.126148 0.371809,-0.371808 0.146069,-0.245659 0.146069,-0.604189 V 7.7447968 h 1.234939 v 4.5679382 q 0,0.823291 -0.305417,1.347808 -0.305415,0.524515 -0.816653,0.770175 -0.511239,0.24566 -1.135347,0.24566 -0.61083,0 -1.128707,-0.24566 -0.517876,-0.24566 -0.82993,-0.770175 -0.312055,-0.524517 -0.312055,-1.347808 V 9.7100727 q 0,-0.3718089 -0.146062,-0.6108289 -0.146069,-0.2390201 -0.371815,-0.3518909 -0.225738,-0.1128702 -0.491315,-0.1128702 -0.265577,0 -0.49796,0.1128702 -0.232378,0.1128714 -0.371808,0.3518909 -0.139431,0.23902 -0.139431,0.6108289 v 2.6026623 q 0,0.823291 -0.312055,1.347808 -0.312054,0.524515 -0.823285,0.770175 -0.511238,0.24566 -1.122068,0.24566 -0.637385,0 -1.148624,-0.24566 -0.511238,-0.24566 -0.816653,-0.770175 -0.305416,-0.524517 -0.305416,-1.347808 z m 41.403587,2.204296 h -3.996947 q -0.424925,0 -0.756896,-0.199183 -0.331974,-0.199183 -0.524517,-0.537795 -0.192542,-0.338613 -0.192542,-0.736978 0,-0.424926 0.20582,-0.750257 0.205823,-0.325334 0.60419,-0.590912 l 3.120539,-1.9785552 q 0.199184,-0.1195098 0.258939,-0.2390196 0.05975,-0.1195097 0.05975,-0.2522982 0,-0.1593469 -0.132789,-0.2987754 Q 58.76107,8.7938292 58.548609,8.7938292 H 55.109375 V 7.7447968 h 3.811042 q 0.411646,0 0.73698,0.1991831 0.325332,0.1991838 0.517875,0.5377953 0.192547,0.3386116 0.192547,0.7369785 0,0.4116447 -0.205823,0.7502575 -0.205825,0.3386128 -0.590913,0.5909098 l -3.120539,1.978555 q -0.199182,0.119511 -0.258937,0.239021 -0.05975,0.11951 -0.05975,0.252298 0,0.159347 0.132787,0.298775 0.13279,0.13943 0.358531,0.13943 h 3.625139 z m -12.03068,0 h -1.221653 v -3.917273 q 0,-0.9029645 0.405001,-1.5801874 0.405007,-0.6772238 1.122069,-1.0556722 0.717061,-0.3784485 1.633307,-0.3784485 0.929523,0 1.639938,0.3784485 0.710424,0.3784484 1.11543,1.0556722 0.405008,0.6772229 0.405008,1.5801874 v 3.917273 h -1.221661 v -3.903994 q 0,-0.610829 -0.272215,-1.0556723 -0.272216,-0.4448417 -0.717061,-0.6838618 -0.444847,-0.23902 -0.949439,-0.23902 -0.504601,0 -0.949447,0.23902 -0.444837,0.2390201 -0.717052,0.6838618 -0.272225,0.4448433 -0.272225,1.0556723 z m -11.180821,0 h -1.739539 q -1.115425,0 -1.978555,-0.418285 -0.863131,-0.418285 -1.347807,-1.181822 -0.484677,-0.763535 -0.484677,-1.78601 0,-1.009195 0.411647,-1.8125687 0.411645,-0.803373 1.141983,-1.2681339 0.730338,-0.4647615 1.699693,-0.4647615 1.049038,0 1.746177,0.4514823 0.697147,0.4514823 1.042392,1.2150184 0.345254,0.7635374 0.345254,1.7063374 0,0.146069 -0.0069,0.305416 -0.0069,0.159345 -0.03319,0.278855 h -5.045969 q 0.06639,0.624108 0.411647,1.055671 0.345246,0.431565 0.883046,0.650668 0.537792,0.219102 1.18846,0.219102 h 1.766093 z m 7.568968,0 h -1.739538 q -1.115423,0 -1.978555,-0.418285 -0.863131,-0.418285 -1.347806,-1.181822 -0.484679,-0.763535 -0.484679,-1.78601 0,-1.009195 0.411647,-1.8125687 0.411646,-0.803373 1.141985,-1.2681339 0.730337,-0.4647615 1.699692,-0.4647615 1.049039,0 1.746177,0.4514823 0.697146,0.4514823 1.042393,1.2150184 0.345254,0.7635374 0.345254,1.7063374 0,0.146069 -0.0069,0.305416 -0.0069,0.159345 -0.0332,0.278855 h -5.045977 q 0.06639,0.624108 0.411646,1.055671 0.345253,0.431565 0.883046,0.650668 0.537792,0.219102 1.188462,0.219102 h 1.766092 z m 30.966374,0 h -1.739535 q -1.115428,0 -1.978556,-0.418285 -0.863128,-0.418285 -1.347806,-1.181822 -0.48468,-0.763535 -0.48468,-1.78601 0,-1.009195 0.411644,-1.8125687 0.411647,-0.803373 1.141987,-1.2681339 0.730338,-0.4647615 1.699699,-0.4647615 1.049031,0 1.746173,0.4514823 0.697141,0.4514823 1.042392,1.2150184 0.345252,0.7635374 0.345252,1.7063374 0,0.146069 -0.0066,0.305416 -0.0066,0.159345 -0.0332,0.278855 h -5.04598 q 0.0664,0.624108 0.411644,1.055671 0.345253,0.431565 0.883047,0.650668 0.537797,0.219102 1.188461,0.219102 h 1.766095 z m -6.466821,0 h -1.593466 q -0.902965,0 -1.414203,-0.517875 -0.511238,-0.517878 -0.511238,-1.407564 V 6.0450983 h 1.221659 v 6.4668207 q 0,0.438203 0.245658,0.697142 0.24566,0.258939 0.683863,0.258939 h 1.367727 z m -5.829434,0 H 62.040959 V 7.7447968 h 1.234936 z M 69.131886,8.7938292 H 64.417881 V 7.7447968 h 4.714005 z M 32.774284,10.679432 q 0.02657,-0.371808 0.159345,-0.7436189 0.132785,-0.3718087 0.385085,-0.6705833 0.2523,-0.2987753 0.604192,-0.4780399 0.351893,-0.1792654 0.816647,-0.1792654 0.438207,0 0.763538,0.1327893 0.325338,0.1327891 0.544438,0.3518906 0.219099,0.2191016 0.351886,0.4913189 0.13279,0.2722166 0.185907,0.5577137 0.05314,0.285496 0.05314,0.537795 z m 7.568969,0 q 0.02657,-0.371808 0.159346,-0.7436189 0.132785,-0.3718087 0.385084,-0.6705833 0.252301,-0.2987753 0.604193,-0.4780399 0.351885,-0.1792654 0.816646,-0.1792654 0.438209,0 0.763539,0.1327893 0.32533,0.1327891 0.544438,0.3518906 0.219101,0.2191016 0.351885,0.4913189 0.132792,0.2722166 0.185907,0.5577137 0.05313,0.285496 0.05313,0.537795 z m 30.966372,0 q 0.02657,-0.371808 0.159347,-0.7436189 0.13279,-0.3718087 0.385087,-0.6705833 0.252299,-0.2987753 0.60419,-0.4780399 0.351891,-0.1792654 0.816654,-0.1792654 0.438201,0 0.763534,0.1327893 0.325333,0.1327891 0.544436,0.3518906 0.2191,0.2191016 0.35189,0.4913189 0.132789,0.2722166 0.185905,0.5577137 0.05311,0.285496 0.05311,0.537795 z M 62.665067,6.6692068 q -0.331972,0 -0.577633,-0.24566 -0.245659,-0.2456593 -0.245659,-0.5776315 0,-0.3319724 0.245659,-0.5776324 0.245661,-0.2456592 0.577633,-0.2456592 0.331972,0 0.57763,0.2456592 0.245661,0.24566 0.245661,0.5776324 0,0.3319722 -0.245661,0.5776315 -0.245658,0.24566 -0.57763,0.24566 z"
       id="path1-5"
       style="font-size:12px;fill:#ffffff;fill-rule:evenodd;stroke:#000000;stroke-width:0;stroke-linecap:round"
       inkscape:label="path1-5" /><path
       style="fill:#ffffff;stroke-width:0.00390625"
       d="M 77.207031,10.564453 V 9.9667969 h 0.695313 0.695312 v 0.5976561 0.597656 h -0.695312 -0.695313 z"
       id="path8"
       transform="matrix(0.87543344,0,0,0.87543344,-2.0019082,-0.97952186)" /></g><defs
     id="defs18"><linearGradient
       id="paint0_linear_1016_57"
       x1="100"
       y1="100"
       x2="508"
       y2="508"
       gradientUnits="userSpaceOnUse"
       gradientTransform="matrix(0.04240317,0,0,0.04240317,-4.2403167,-4.2403167)"><stop
         offset="0.0684898"
         stop-color="#0047AB"
         id="stop15"
         style="stop-color:#b03000;stop-opacity:1;" /><stop
         offset="0.74121201"
         stop-color="#8A2BE2"
         id="stop16"
         style="stop-color:#ff682d;stop-opacity:1;" /></linearGradient><linearGradient
       id="paint1_linear_1016_57"
       x1="1459.63"
       y1="161.55"
       x2="1459.63"
       y2="218.53"
       gradientUnits="userSpaceOnUse"
       gradientTransform="matrix(0.04240317,0,0,0.04240317,-4.2403167,-4.2403167)"><stop
         stop-color="#59CAFD"
         id="stop17" /><stop
         offset="1"
         stop-color="#2B50EF"
         id="stop18" /></linearGradient></defs></svg>
